<svg version="1.1" xmlns="http://www.w3.org/2000/svg" viewBox="0 0 768 768">
<path fill="currentColor" d="M572.304 216.619h-87.29l54.105-54.105c16.361-16.361 16.361-42.807 0-59.171s-42.807-16.361-59.171 0l-155.121 155.121 155.121 155.121c8.16 8.16 18.872 12.262 29.584 12.262s21.424-4.102 29.584-12.262c16.361-16.361 16.361-42.807 0-59.17l-54.105-54.105h87.29c57.705 0 104.615 56.323 104.615 125.537s-56.323 125.537-125.537 125.537h-334.763c-69.212 0-125.537-56.323-125.537-125.537s56.323-125.537 125.537-125.537v0c23.141 0 41.846-18.746 41.846-41.846s-18.705-41.846-41.846-41.846v0c-115.368 0-209.226 93.859-209.226 209.226s93.859 209.226 209.226 209.226h334.763c115.368 0 209.226-93.859 209.226-209.226s-84.486-209.226-188.304-209.226z"></path>
</svg>
